<svg id="Capa_1" enable-background="new 0 0 511.992 511.992" height="512" viewBox="0 0 511.992 511.992" width="512" xmlns="http://www.w3.org/2000/svg"><g><path d="m255.996 30.996c-140.889 0-225 84.111-225 225 0 49.576 10.47 88.226 30 117.757l15-27.757 15 60.873c38.432 30.69 94.338 44.127 165 44.127 72.984 0 127.705-14.976 165-45.027l15-59.973 15 27.246c20.002-30.163 30-69.124 30-117.246 0-140.888-84.111-225-225-225z" fill="#e68945"/><path d="m435.996 345.996 15 27.246c20.002-30.163 30-69.124 30-117.246 0-140.889-84.111-225-225-225v420c72.984 0 127.705-14.976 165-45.027z" fill="#cc7029"/><path d="m315.996 90.996c-17.08 0-29.517 10.21-39.521 18.398-7.573 6.226-14.121 11.602-20.479 11.602-6.357 0-12.905-5.376-20.479-11.602-10.005-8.188-22.441-18.398-39.521-18.398-8.291 0-15 6.709-15 15s6.709 15 15 15c6.357 0 12.905 5.376 20.479 11.602 6.779 5.548 14.822 11.799 24.521 15.399v77.999c0 8.291 6.709 15 15 15s15-6.709 15-15v-77.999c9.699-3.6 17.743-9.851 24.521-15.399 7.573-6.226 14.121-11.602 20.479-11.602 8.291 0 15-6.709 15-15s-6.709-15-15-15z" fill="#cc7029"/><path d="m270.996 225.996v-77.999c9.699-3.6 17.743-9.851 24.521-15.399 7.573-6.226 14.121-11.602 20.479-11.602 8.291 0 15-6.709 15-15s-6.709-15-15-15c-17.08 0-29.517 10.21-39.521 18.398-7.573 6.226-14.121 11.602-20.479 11.602v120c8.291 0 15-6.709 15-15z" fill="#994a0f"/><g><path d="m255.996 420.996h-73.488c6.951 34.232 37.203 60 73.488 60s66.537-25.768 73.488-60z" fill="#e6455a"/></g><g><path d="m329.484 420.996h-73.488v60c36.284 0 66.537-25.768 73.488-60z" fill="#b32437"/></g><path d="m148.477 202.676-11.719-17.563-24.961 16.641 11.719 17.563c4.642 6.938 13.954 8.723 20.801 4.16 6.899-4.6 8.759-13.916 4.16-20.801z" fill="#463f3f"/><path d="m375.234 185.112-11.719 17.563c-4.6 6.885-2.739 16.201 4.16 20.801 6.846 4.564 16.159 2.778 20.801-4.16l11.719-17.563z" fill="#352c2c"/><path d="m450.996 373.242v-57.246c0-61.465-29.604-120.088-79.189-156.812-29.154-21.552-70.811.436-70.811 36.943 0 8.291 6.709 15 15 15s15-6.709 15-15c0-11.776 13.568-19.774 22.969-12.832 41.968 31.084 67.031 80.698 67.031 132.7v89.973c11.702-9.427 21.751-20.287 30-32.726z" fill="#994a0f"/><path d="m158.027 183.311c9.349-6.967 22.969 1.018 22.969 12.817 0 8.291 6.709 15 15 15s15-6.709 15-15c0-36.617-41.794-58.442-70.811-36.929-49.585 36.709-79.189 95.317-79.189 156.797v57.757c8.375 12.664 18.296 23.771 30 33.116v-90.873c0-52.016 25.064-101.616 67.031-132.685z" fill="#cc7029"/><path d="m255.996 210.996c-74.443 0-135 60.557-135 135v90c0 24.814 20.186 45 45 45 39.36 0 74.487-23.306 90-58.843 15.513 35.537 50.64 58.843 90 58.843 24.814 0 45-20.186 45-45v-90c0-74.443-60.556-135-135-135z" fill="#766e6e"/><path d="m345.996 480.996c24.814 0 45-20.186 45-45v-90c0-74.443-60.557-135-135-135v211.157c15.513 35.538 50.64 58.843 90 58.843z" fill="#5b5555"/><path d="m255.996 330.996c-8.291 0-15 6.709-15 15v30c0 8.291 6.709 15 15 15s15-6.709 15-15v-30c0-8.291-6.709-15-15-15z" fill="#463f3f"/><path d="m270.996 375.996v-30c0-8.291-6.709-15-15-15v60c8.291 0 15-6.709 15-15z" fill="#352c2c"/><g><g><path d="m263.496 286.016h-7.5-7.5c-23.851-.353-37.5 5.74-37.5 29.98 0 24.814 20.186 45 45 45s45-20.186 45-45c0-24.397-13.652-30.126-37.5-29.98z" fill="#463f3f"/></g><g><path d="m300.996 315.996c0-24.397-13.652-30.126-37.5-29.98h-7.5v74.98c24.815 0 45-20.185 45-45z" fill="#352c2c"/></g></g><g><path d="m24.243 185.479-21.522-56.382c-8.496-23.306 3.574-49.189 26.895-57.671l106.923-38.555c11.646-4.204 24.521-1.04 32.856 8.042 8.35 9.111 10.371 22.236 5.142 33.428-26.235 56.25-72.773 98.906-131.074 120.103-7.676 2.803-16.361-1.089-19.22-8.965z" fill="#cc7029"/></g><g><path d="m468.53 194.443c-58.301-21.196-104.839-63.853-131.074-120.103-5.229-11.191-3.208-24.316 5.142-33.428 8.35-9.082 21.196-12.246 32.856-8.042l106.923 38.555c23.32 8.481 35.391 34.365 26.895 57.671l-21.522 56.382c-2.856 7.867-11.533 11.773-19.22 8.965z" fill="#994a0f"/></g></g></svg>