<svg id="Capa_1" enable-background="new 0 0 512 512" height="512" viewBox="0 0 512 512" width="512" xmlns="http://www.w3.org/2000/svg"><g><path d="m145.639 56.737c-87.862 43.77-145.639 136.978-145.639 237.481v202.782c0 8.291 6.709 15 15 15 62.93 0 119.374-44.546 133.173-108.267l19.131-332.699z" fill="#cc7029"/><path d="m356.767 51.684-20.874 15.029 25.269 303.549c-3.767 77.488 58.727 141.738 135.838 141.738 8.291 0 15-6.709 15-15v-211c0-101.997-61.542-193.96-155.233-234.316z" fill="#994a0f"/><path d="m256 0c-93.6 0-165 76.3-165 166v21l143.699 84h21.301 46.8l118.2-84v-21c0-85.8-68.401-166-165-166z" fill="#fff5f5"/><path d="m421 187v-21c0-85.8-68.401-166-165-166v271h46.8z" fill="#efe2dd"/><path d="m390.41 142.801-25.016 3.805 2.349-23.56c-10.955-7.96-22.592-15.125-35.544-20.345-4.499-1.802-9.899-1.201-14.099 1.8-20.099 14.098-32.1 36.899-32.1 61.499 0 16.406 5.641 32.115 15.375 45h-45.375-45.505c9.785-12.892 15.505-28.632 15.505-45 0-24.6-12.001-47.401-32.1-61.5-4.2-3.001-9.6-3.602-14.099-1.8-12.953 5.22-24.589 12.385-35.544 20.345l2.349 23.56-25.014-3.803c-12.483 13.118-23.125 27.825-30.592 44.198v220c0 3.9 1.5 7.8 4.501 10.499l60 60c2.699 3.001 6.599 4.501 10.499 4.501h90 90c3.9 0 7.8-1.5 10.499-4.501l60-60c3.001-2.699 4.501-6.599 4.501-10.499v-220c-7.467-16.373-18.107-31.082-30.59-44.199z" fill="#766e6e"/><path d="m356.499 477.499 60-60c3.001-2.699 4.501-6.599 4.501-10.499v-220c-7.467-16.373-18.107-31.082-30.59-44.2l-25.016 3.805 2.349-23.56c-10.955-7.96-22.592-15.125-35.544-20.345-4.499-1.802-9.899-1.201-14.099 1.8-20.099 14.099-32.1 36.9-32.1 61.5 0 16.406 5.641 32.115 15.375 45h-45.375v271h90c3.9 0 7.8-1.5 10.499-4.501z" fill="#5b5555"/><g><path d="m161.605 161.605c5.859-5.859 5.859-15.352 0-21.211l-17.349-17.349c-8.201 5.956-15.771 12.512-22.665 19.757l18.803 18.803c5.86 5.86 15.352 5.86 21.211 0z" fill="#463f3f"/><path d="m367.744 123.045-17.349 17.349c-5.859 5.859-5.859 15.352 0 21.211s15.352 5.859 21.211 0l18.805-18.805c-6.895-7.245-14.468-13.798-22.667-19.755z" fill="#352c2c"/></g><path d="m256 181c-57.891 0-105 47.109-105 105v181c0 24.814 20.186 45 45 45 20.859 0 38.833-14.136 43.945-35.449l16.055-97.324.015-.088 16.26 98.496c4.892 20.229 22.866 34.365 43.725 34.365 24.814 0 45-20.186 45-45v-181c0-57.891-47.109-105-105-105z" fill="#e68945"/><path d="m272.274 477.635c4.893 20.229 22.867 34.365 43.726 34.365 24.814 0 45-20.186 45-45v-181c0-57.891-47.109-105-105-105v198.227l.015-.088z" fill="#cc7029"/><g><path d="m263.5 226.02h-7.5-7.5c-23.851-.353-37.5 5.74-37.5 29.98 0 24.814 20.186 45 45 45s45-20.186 45-45c0-24.397-13.652-30.126-37.5-29.98z" fill="#463f3f"/><path d="m301 256c0-24.397-13.652-30.126-37.5-29.98h-7.5v74.98c24.814 0 45-20.186 45-45z" fill="#352c2c"/></g></g></svg>