<?xml version="1.0"?>
<svg xmlns:rdf="http://www.w3.org/1999/02/22-rdf-syntax-ns#" xmlns="http://www.w3.org/2000/svg" xmlns:cc="http://web.resource.org/cc/" xmlns:dc="http://purl.org/dc/elements/1.1/" xmlns:sodipodi="http://inkscape.sourceforge.net/DTD/sodipodi-0.dtd" xmlns:svg="http://www.w3.org/2000/svg" id="svg1432" sodipodi:version="0.32" height="297mm" width="210mm" sodipodi:docname="Paw.svg" sodipodi:docbase="C:\foo\wikipedia\transfer">
  <sodipodi:namedview id="base" bordercolor="#666666" borderopacity="1.0" pagecolor="#ffffff"/>
  <path id="path1445" d="m512.34 1021.5c-2.58-0.7-7.42-1.5-10.77-1.9-4.58-0.5-8.3-1.7-15.02-5.1-11.61-5.8-14.64-6.5-28.26-6.9l-11.36-0.3-4.52-5c-5.69-6.33-8.09-13.43-9.28-27.52-1.08-12.79-2.56-22.99-3.53-24.29-0.41-0.54-1.27-2.88-1.92-5.2s-1.97-5.58-2.94-7.26c-2.57-4.43-7.26-18.97-7.99-24.74-0.35-2.74-2.12-9.2-3.93-14.35-2.83-8-3.3-10.52-3.26-17.33 0.03-4.37 0.93-12.34 2-17.7 2.77-13.88 3.33-24.12 2.03-37.54-1.33-13.85-4.22-22.34-10.16-29.86-2.16-2.72-3.92-5.57-3.92-6.32 0-2.06-2.78-7.07-5.37-9.68-3.07-3.11-6.48-9.16-7.26-12.9-1.25-6 2.91-13.97 10.46-20.03 2.48-1.99 4.94-3.96 5.46-4.38s2.42-1.28 4.21-1.91c1.8-0.62 4.74-2.1 6.54-3.29 1.8-1.18 5.2-2.88 7.54-3.77 10.95-4.15 16.66-15.8 12.56-25.61-2.05-4.9-3.93-6.71-9.91-9.56-2.89-1.38-7.31-4.01-9.83-5.84-5.91-4.32-14.7-7.78-25.72-10.13-17.28-3.68-18.51-4.22-25.46-11.25-6.57-6.63-9.11-11.04-9.11-15.79 0-5.01 8.19-9.83 20.14-11.86 2.06-0.35 8.8-3.11 14.98-6.13 7.02-3.43 13.87-6.04 18.26-6.95 12.78-2.65 18.16-4.32 25.74-8 8.56-4.15 16.44-5.67 23.89-4.6 6.74 0.97 9.41 2.07 13.33 5.51 7.78 6.83 21.25 9.25 29.27 5.24 9.53-4.77 0.67-13.52-15.28-15.09-3.44-0.34-8.15-1.56-10.47-2.7-10.18-5.03-12.73-5.39-34.03-4.88-18.43 0.44-20.51 0.67-29.85 3.31-5.52 1.55-10.43 3.07-10.9 3.36s-5.43 1.47-11.02 2.63c-9.49 1.97-12.54 2.11-45.29 2.12l-35.12 0.01-5.15 3.17c-2.83 1.74-6.53 4.38-8.23 5.85-7.18 6.28-16.96 7.81-44.99 7.08-21.68-0.57-29.45-1.71-39.01-5.73-12.33-5.19-18.26-2.12-18.26 9.46v5.43l5.91 5.63c6.81 6.5 8.55 9.01 9.41 13.66 0.6 3.21 2.97 7.26 9.02 15.38 1.53 2.06 4.07 7.71 5.65 12.55 3.26 10.01 3.95 11.47 7.57 16.01 4.76 5.96 6.5 11.57 8.82 28.4 2.31 16.78 2.38 17.07 6.53 29.19 1.42 4.12 3.14 10.44 3.84 14.04 1.26 6.48 3.19 61.07 3.29 92.71 0.03 8.24 0.45 17.92 0.93 21.51 0.49 3.6 0.93 12.66 0.99 20.14 0.1 12.68-0.05 13.95-2.28 18.9-2.57 5.7-4.57 7.33-8.98 7.33-4.68 0-8.06-3.77-11.24-12.56-2.36-6.53-2.84-9.27-2.85-16.25-0.01-4.61-0.42-11.08-0.92-14.37-0.51-3.29-1.18-10.4-1.5-15.81s-1.2-15.31-1.96-22c-2.38-20.87-4.04-43.1-5.08-67.89-1.27-30.5-2.39-45.54-3.74-50.58-0.6-2.2-2.8-6.79-4.9-10.19-5.61-9.09-7.13-12.45-8.73-19.39-1.63-6.99-4.95-14.13-8.94-19.2-1.47-1.86-4.14-6.87-5.93-11.13-1.8-4.25-3.86-8.42-4.6-9.25-0.73-0.84-2.26-3.38-3.41-5.65-1.14-2.28-3.66-6.49-5.6-9.37-3.67-5.43-7.01-14.36-8.1-21.62-0.35-2.31-2.08-7.79-3.86-12.17-3.02-7.44-3.28-8.97-4.09-23.41-1.6-28.86-2.31-34.64-5.08-41.52-1.42-3.53-3.78-7.73-5.24-9.33-1.47-1.61-3.32-5.25-4.11-8.11-2.25-8.1-5.12-13.73-10.39-20.34-5.47-6.87-8.2-14.96-9.89-29.32-1.05-8.9-0.4-32.17 1.05-37.92 1.2-4.75 1.28-36.85 0.11-43.61-0.48-2.79-1.42-12.25-2.09-21-3.03-40.03 0.17-63.3 10.35-75.29 2.45-2.88 5.23-6.5 6.18-8.05 0.95-1.54 3.89-5.34 6.53-8.43 5.26-6.15 8.49-10.92 11.74-17.34 1.17-2.31 4.39-7.3 7.15-11.1 2.77-3.8 5.03-7.42 5.03-8.04 0-0.63 1.62-3.42 3.61-6.2 3.33-4.68 13.14-23.95 14.57-28.63 0.34-1.12 2.47-3.54 4.72-5.39 6.08-4.97 20.62-26.18 23.37-34.07 0.66-1.9 2-8.73 2.97-15.17 1.57-10.44 2.26-12.66 6.36-20.6 2.53-4.89 6.19-12.06 8.13-15.92 2.79-5.55 5.85-9.4 14.61-18.35 11.75-12 14.5-16.234 18.17-28 1.12-3.605 3.75-10.558 5.84-15.45 3.05-7.155 3.91-10.461 4.39-16.895 0.51-6.975 0.98-8.566 3.63-12.418 5.93-8.625 10.22-10.965 17.55-9.589 3.73 0.699 11.03 7.321 13.47 12.215 0.77 1.545 1.81 3.099 2.3 3.453 0.5 0.354 1.21 3.936 1.59 7.959 2.23 23.94 3.55 26.747 15.31 32.548 9.36 4.617 13.35 4.762 26.64 0.971 8.8-2.511 10.2-3.217 13.82-7 2.22-2.315 4.7-6.107 5.52-8.429 0.81-2.321 2.9-7.169 4.64-10.774 4.38-9.066 6.7-16.499 7.87-25.221 1.62-12.049 4.69-15.472 13.88-15.498 6.44-0.018 11.1 2.397 14.95 7.758 3.03 4.225 4.3 8.655 7.2 25.054 2.16 12.275 7.84 21.162 15.3 23.925 2.43 0.902 5.47 2.342 6.76 3.202 1.29 0.859 4.73 2.643 7.66 3.965 8.21 3.708 13.65 10.172 21.48 25.504 3.68 7.21 7.06 13.58 7.51 14.15 1.15 1.46 4.19 16.38 4.95 24.24 0.93 9.69 3.58 18.42 7.31 24.04 1.82 2.75 3.97 6.56 4.77 8.48 2.24 5.37 9.35 12.4 14.45 14.3 8.14 3.03 18.9 10.78 27.49 19.8 4.89 5.14 5.79 7.32 8.39 20.44 1.02 5.13 2.54 10.38 3.38 11.66 1.67 2.55 5.93 7.13 19.2 20.67 6.9 7.05 9.54 10.56 12.69 16.86 2.18 4.38 5.06 9.22 6.4 10.77 1.35 1.54 2.97 3.86 3.61 5.15 1.45 2.9 3.93 12.17 4.75 17.79 0.76 5.15 6.01 23.48 7.14 24.91 0.45 0.57 1.29 5.42 1.85 10.77 1.13 10.63 0.05 21.69-3.81 38.76-1.05 4.63-2.75 15.8-3.77 24.81-1.03 9.02-2.27 18.29-2.76 20.6-0.49 2.32-1.16 5.9-1.49 7.96-0.34 2.06-0.94 4.17-1.34 4.68-0.4 0.52-1.48 3.26-2.4 6.09s-2.84 7.47-4.26 10.3-3.07 7.05-3.65 9.36c-0.59 2.32-1.65 5.48-2.35 7.03-0.7 1.54-1.58 4.49-1.96 6.55-0.74 4.01-6.75 20.8-9.07 25.35-3.85 7.51-4.6 35.18-1.54 56.31 2.33 16.1 1.77 25.34-2.86 46.63-1.56 7.21-3.28 15.18-3.8 17.7-0.53 2.53-2.64 8.33-4.69 12.88-3.01 6.69-3.72 9.36-3.72 13.9 0 3.09-0.66 9.94-1.46 15.22-2.97 19.54-3.17 47.48-0.49 67.88 0.52 3.99 1.4 14.84 1.95 24.11 0.95 16.1 2.9 34.07 4.75 43.9 1.32 7.02 1.01 34.64-0.48 43.18-0.73 4.12-1.81 12.55-2.4 18.73-0.6 6.18-1.69 13.98-2.43 17.32-0.74 3.35-1.75 12.87-2.24 21.16-0.95 16.13-3.24 35.88-4.6 39.71-1.39 3.88-5.8 24.02-9.04 41.2-2.01 10.71-4.75 18.91-7.14 21.51-4.28 4.6-10.42 5.6-19.03 3.2zm-274.64-437.75c5.73-1.19 11.58-4.27 17.69-9.32 2.37-1.96 7.15-4.9 10.63-6.55 5.14-2.42 8.74-5.36 19.11-15.59 15.58-15.36 17.77-16.68 27.39-16.52 9.77 0.15 16.87 2.34 20.06 6.18 3.12 3.75 8.15 6.95 13.06 8.29 2.05 0.56 5.42 2.22 7.49 3.69 2.07 1.46 7.09 3.8 11.14 5.18 6.75 2.3 8.25 2.48 17.84 2.05 12.49-0.55 15.62-1.78 21.1-8.28 8.49-10.07 8.71-13.95 1.56-28.09-2.75-5.44-5.75-12.18-6.66-14.98s-2.73-7.4-4.05-10.23c-3.23-6.93-4.03-22.14-1.6-30.51 0.88-3.05 1.95-5.97 2.37-6.49 0.43-0.51 1.9-3.88 3.29-7.49 1.95-5.07 2.53-8.24 2.56-14.04 0.06-8.36-0.95-12.79-4.86-21.33-1.47-3.21-2.98-7.29-3.36-9.08-1.42-6.74-6.22-15-11.12-19.15-7.38-6.25-10.32-7.45-18.35-7.5-9.05-0.05-17.32 2.74-26.41 8.9-3.75 2.54-7.15 4.62-7.57 4.62-1.06 0-19.39 9.13-20.99 10.45-0.72 0.6-2.62 3.97-4.22 7.49-1.61 3.52-3.23 6.4-3.61 6.4-0.68 0-2.06 5.36-3.25 12.64-0.99 6.09-0.57 23.47 0.88 36.18 1.87 16.42 0.98 22.82-4.73 33.95-5.33 10.4-10.5 16.72-15.65 19.12-2.38 1.11-8.04 2.24-14.65 2.91-5.92 0.61-12.32 1.45-14.21 1.88-7.61 1.72-35.39 26.2-38.69 34.09-3.1 7.44-0.67 16.24 5.29 19.11 5.35 2.57 15.48 3.48 22.52 2.02zm258.36-11.97c5.2-5.19 5.09-9.21-0.44-16.64-5.98-8.01-6.21-8.69-6.02-17.79 0.23-11.25-1.94-15.26-8.25-15.29-3.85-0.02-9.4 3.11-16.22 9.16-7.18 6.35-9.99 12.12-10.84 22.19-0.73 8.66 0.4 12.35 5.13 16.86 2.84 2.71 3.27 2.81 12.01 2.89 4.99 0.04 10.13 0.54 11.41 1.11 1.29 0.57 3.97 1.06 5.97 1.09 3 0.05 4.24-0.57 7.25-3.58zm-312.01-38.92c5.85-3.03 6.96-14.87 2.29-24.5-3.55-7.32-7.16-9.72-14.61-9.72-5.06 0-5.85 0.28-8.67 3.09-3.85 3.85-5.12 10.15-3.11 15.42 1.7 4.48 16.63 17.05 20.26 17.06 0.67 0.01 2.4-0.6 3.84-1.35zm24.91-90c5.93-2.82 11.16-9.01 16.22-19.19 4.57-9.22 4.85-10.19 4.85-16.96-0.01-5.11-0.55-8.44-1.9-11.59-4.74-11.05-9.23-36.72-9.29-53.13-0.06-14.52-2.08-23.38-6.39-28.01-4.58-4.92-15.77-5.25-26.18-0.77-3.58 1.54-5.73 3.47-9.75 8.72-2.84 3.72-6.03 8.65-7.09 10.97-5.81 12.64-6.91 15.92-8.25 24.64-0.81 5.25-1.87 11.82-2.36 14.61-2.15 12.16-0.38 47.22 2.8 55.57 3.42 8.96 7.06 12.04 19.24 16.25 4.95 1.72 23.71 0.97 28.1-1.11zm327.26-20.27c8.85-3.75 15.74-9.11 20.03-15.6 2.25-3.41 4.38-7.89 4.72-9.95 0.62-3.76 3.5-10.09 8.47-18.63 2.97-5.1 3.08-6.54 1.61-22.2-0.73-7.83-1.58-11.38-3.99-16.85-2.91-6.6-6.5-18.35-6.5-21.29 0-1.81-4.21-7.29-6.99-9.12-2.23-1.46-11.07-2.99-22.16-3.82-5.41-0.41-6.85-0.15-11.23 2.05-7.72 3.86-10.7 6.49-14.01 12.36-1.67 2.97-4.64 7.16-6.59 9.32-3.66 4.03-7.63 11.86-10.59 20.89-4.59 13.96-6.58 19.49-8.18 22.7-1.46 2.93-4.32 16.2-6.14 28.54-0.55 3.66 2.74 10.96 5.85 13 5.55 3.64 18.39 7.47 35.57 10.63 5.47 1 15.29 0.01 20.13-2.03zm-109.86-148.05c5.96-1.55 17.33-9.78 19.32-13.99 5.15-10.89 6.57-18.69 8.82-48.45 0.57-7.51-1.32-47.55-2.69-57.12-2.03-14.2-5.73-22.96-11.32-26.83-3.49-2.42-4.57-2.66-11.89-2.66-7.43 0-8.42 0.23-12.72 2.95-2.57 1.63-6.72 3.64-9.23 4.48-5.96 1.98-7.47 2.82-14.17 7.82-7.23 5.39-11.09 9.57-13.43 14.5-1.77 3.75-1.88 6.27-2.18 47.97l-0.3 44.01 2.66 6.08c3.83 8.75 6.41 11.76 11.6 13.56 2.45 0.86 6.36 2.54 8.68 3.73 2.31 1.2 6.53 2.64 9.36 3.2 2.83 0.57 5.99 1.2 7.02 1.4 3.6 0.71 5.72 0.58 10.47-0.65zm-135.91-2.39c3.71-1.69 7.86-6.1 14.77-15.7 1.9-2.64 4.55-5.52 5.88-6.39 1.42-0.93 4.02-4.92 6.32-9.7 3.77-7.86 3.9-8.41 3.8-17.02-0.06-4.89-0.16-17.79-0.22-28.67-0.15-24.73-1.06-31.48-5.49-40.61-7.14-14.71-12.28-18.49-26.41-19.4-6.68-0.43-9.49-0.17-14.71 1.36-3.54 1.05-7.65 2.18-9.12 2.52-1.47 0.33-3.7 1.29-4.97 2.12-2.28 1.49-5.93 7.53-5.94 9.84 0 0.66-0.63 2.4-1.39 3.86-0.76 1.45-2.44 6.84-3.74 11.97-2.53 10.02-2.94 18.78-1.44 30.39 0.65 4.97 0.53 8.24-0.49 13.11-2.71 12.96-1.25 25.45 4.78 40.66 0.71 1.81 1.57 4.97 1.9 7.03 1.31 7.98 5.43 11.69 16.22 14.57 8.2 2.19 15.52 2.21 20.25 0.06z"/>
  <metadata>
    <rdf:RDF>
      <cc:Work>
        <dc:format>image/svg+xml</dc:format>
        <dc:type rdf:resource="http://purl.org/dc/dcmitype/StillImage"/>
        <cc:license rdf:resource="http://creativecommons.org/licenses/publicdomain/"/>
        <dc:publisher>
          <cc:Agent rdf:about="http://openclipart.org/">
            <dc:title>Openclipart</dc:title>
          </cc:Agent>
        </dc:publisher>
        <dc:title>Paw</dc:title>
        <dc:date>2006-10-29T13:31:00</dc:date>
        <dc:description>A paw.</dc:description>
        <dc:source>http://openclipart.org/detail/1001/paw-by-liftarn</dc:source>
        <dc:creator>
          <cc:Agent>
            <dc:title>liftarn</dc:title>
          </cc:Agent>
        </dc:creator>
        <dc:subject>
          <rdf:Bag>
            <rdf:li>animal</rdf:li>
            <rdf:li>clip art</rdf:li>
            <rdf:li>clipart</rdf:li>
            <rdf:li>footprint</rdf:li>
            <rdf:li>icon</rdf:li>
            <rdf:li>image</rdf:li>
            <rdf:li>media</rdf:li>
            <rdf:li>paw</rdf:li>
            <rdf:li>png</rdf:li>
            <rdf:li>public domain</rdf:li>
            <rdf:li>svg</rdf:li>
          </rdf:Bag>
        </dc:subject>
      </cc:Work>
      <cc:License rdf:about="http://creativecommons.org/licenses/publicdomain/">
        <cc:permits rdf:resource="http://creativecommons.org/ns#Reproduction"/>
        <cc:permits rdf:resource="http://creativecommons.org/ns#Distribution"/>
        <cc:permits rdf:resource="http://creativecommons.org/ns#DerivativeWorks"/>
      </cc:License>
    </rdf:RDF>
  </metadata>
</svg>
