<svg height="512" viewBox="0 0 58 58" width="512" xmlns="http://www.w3.org/2000/svg"><g id="Page-1" fill="none" fill-rule="evenodd"><g id="007---Pet-Insurance" fill-rule="nonzero"><path id="Shape" d="m51 22.96v.04c0 .72-.03 1.44-.1 2.14-.02.3-.06.6-.1.89-.3207444 2.5805903-1.0640101 5.0908013-2.2 7.43l-5.6 5.54-29.74.06c-3.58607805-3.8589712-5.76069548-8.8179448-6.17-14.07-.06-.65-.09-1.32-.09-1.99v-.04l.12-.21v-.01l10.77-19.6h.01c6.8078038-4.18676566 15.3921962-4.18676566 22.2 0z" fill="#cb8252"/><path id="Shape" d="m20 4s-.773-1-4-1h-8.748c-3.10315657.00019588-5.69416434 2.36657736-5.975 5.457l-1.268 13.951c-.05882284.6445426.19789368 1.277705.68897809 1.6992869.49108441.421582 1.15581947.5794595 1.78402191.4237131 3.978-.947 11.159-3.714 13.291-11.531z" fill="#cb8252"/><path id="Shape" d="m38 4s.773-1 4-1h8.748c3.1031566.00019588 5.6941643 2.36657736 5.975 5.457l1.268 13.951c.0588228.6445426-.1978937 1.277705-.6889781 1.6992869-.4910844.421582-1.1558195.5794595-1.7840219.4237131-3.978-.947-11.159-3.714-13.291-11.531z" fill="#cb8252"/><path id="Shape" d="m36 49v-4h-14v4l.39 3.88c.67 1.18 2.43 3.12 6.61 3.12s5.94-1.94 6.61-3.12z" fill="#a56a43"/><path id="Shape" d="m42.03 35.7c-2.307263-1.9894741-5.0627293-3.3895118-8.03-4.08h-10c-7.26 1.86-12 6.62-12 12.38 0 6 3 9 9 9s8-6 8-6 2 6 8 6c.8280051.0052268 1.6547618-.0650643 2.47-.21z" fill="#cf976a"/><path id="Shape" d="m34 31.667c0 2.209-2.239 5.333-5 5.333s-5-3.124-5-5.333 2.239-2.667 5-2.667 5 .458 5 2.667z" fill="#3f5c6c"/><path id="Shape" d="m16.57 14.31c-1.3658454 4.8194737-4.8565839 8.7520778-9.48 10.68-.06-.65-.09-1.32-.09-1.99v-.04l.12-.21v-.01c3.6759161-1.7696433 6.4147-5.0328753 7.52-8.96.1463555-.5329548.6970452-.8463555 1.23-.7s.8463555.6970452.7 1.23z" fill="#a56a43"/><path id="Shape" d="m51 22.97v.03c0 .72-.03 1.44-.1 2.14-4.7713343-1.892108-8.3925565-5.893928-9.8-10.83-.0946754-.3447613.0017689-.7138426.2530033-.9682145.2512343-.2543719.6190902-.3553894.965-.265.3459097.0903893.6173213.3584532.7119967.7032145 1.1563417 4.0969306 4.0778723 7.4656717 7.97 9.19z" fill="#a56a43"/><g fill="#805333"><circle id="Oval" cx="16" cy="45" r="1"/><circle id="Oval" cx="18" cy="41" r="1"/><circle id="Oval" cx="19" cy="49" r="1"/><circle id="Oval" cx="21" cy="45" r="1"/></g><path id="Shape" d="m23 24c0 2.76-1.79 5-4 5-1.8187873-.129923-3.3359684-1.4396611-3.73-3.22-.1833801-.5753648-.2745082-1.1761353-.27-1.78-.0046653-.8136025.1552038-1.6197506.47-2.37l5.87-1.6.06-.02c1.0564009 1.0553206 1.6345933 2.497188 1.6 3.99z" fill="#2c3e50"/><path id="Shape" d="m43 24c.0045082.6038647-.0866199 1.2046352-.27 1.78-.3940316 1.7803389-1.9112127 3.090077-3.73 3.22-2.21 0-4-2.24-4-5-.0345933-1.492812.5435991-2.9346794 1.6-3.99l.06.02 5.87 1.6c.3147962.7502494.4746653 1.5563975.47 2.37z" fill="#2c3e50"/><path id="Shape" d="m47 58 4.618-2.771c3.3716237-2.0227392 5.5384572-5.5688743 5.8-9.492l.582-8.737s-5 1-11-5c-6 6-11 5-11 5l.582 8.737c.2615428 3.9231257 2.4283763 7.4692608 5.8 9.492z" fill="#5d4c72"/><path id="Shape" d="m43.411 53.514c-2.8088243-1.6865863-4.6143897-4.6410799-4.834-7.91l-.44-6.617c3.3165476-.4917081 6.4064657-1.9761797 8.863-4.258 2.4565343 2.2818203 5.5464524 3.7662919 8.863 4.258l-.44 6.617c-.2196103 3.2689201-2.0251757 6.2234137-4.834 7.91l-3.589 2.153z" fill="#7d6599"/><path id="Shape" d="m45 51c-.2651948-.0000566-.5195073-.1054506-.707-.293l-3-3c-.3789722-.3923789-.3735524-1.0160848.0121814-1.4018186s1.0094397-.3911536 1.4018186-.0121814l2.157 2.157 6.317-9.023c.1998278-.3047965.5496556-.4767398.9130419-.4487678.3633864.027972.6827779.251429.833604.5832174s.109199.7193592-.1086459 1.0115504l-7 10c-.1694679.242281-.4374646.3971479-.732.423-.0289118.0028297-.0579505.0041648-.087.004z" fill="#ecf0f1"/><path id="Shape" d="m22 22.5c.1315237 2.3449336-1.6558183 4.3556934-4 4.5-1.0397106-.0109355-2.0282902-.4527184-2.73-1.22-.1833801-.5753648-.2745082-1.1761353-.27-1.78-.0046653-.8136025.1552038-1.6197506.47-2.37l5.87-1.6c.4371368.749409.6650697 1.6024306.66 2.47z" fill="#35495e"/><path id="Shape" d="m43 24c.0045082.6038647-.0866199 1.2046352-.27 1.78-.7017098.7672816-1.6902894 1.2090645-2.73 1.22-2.3441817-.1443066-4.1315237-2.1550664-4-4.5-.0050697-.8675694.2228632-1.720591.66-2.47l5.87 1.6c.3147962.7502494.4746653 1.5563975.47 2.37z" fill="#35495e"/><path id="Shape" d="m15 22.994c-.4018897-.0016616-.7637369-.2437563-.918621-.6146054-.154884-.3708491-.0727076-.7983888.208621-1.0853946.097-.094 2.357-2.294 7.71-2.294.5522847 0 1 .4477153 1 1s-.4477153 1-1 1c-4.449 0-6.283 1.7-6.3 1.715-.1880258.1807199-.4392127.2808358-.7.279z" fill="#a56a43"/><path id="Shape" d="m43 23c-.2616316.000229-.5129334-.1020867-.7-.285-.05-.047-1.892-1.715-6.3-1.715-.5522847 0-1-.4477153-1-1s.4477153-1 1-1c5.353 0 7.613 2.2 7.707 2.293.2859079.2859943.3714219.7160366.216678 1.0896546-.1547439.3736179-.5192821.6172591-.923678.6173454z" fill="#a56a43"/><ellipse id="Oval" cx="17" cy="24.5" fill="#ecf0f1" rx="1" ry="1.5"/><ellipse id="Oval" cx="37" cy="24.5" fill="#ecf0f1" rx="1" ry="1.5"/></g></g></svg>