<svg id="Capa_1" enable-background="new 0 0 512 512" height="512" viewBox="0 0 512 512" width="512" xmlns="http://www.w3.org/2000/svg"><g><path d="m211 346c0-3.267-.22-6.504-1.113-11.968l-59.502-202.266-29.385 4.234v7.881c0 26.221-18.354 43.579-29.312 51.592-19.218 14.106-31.688 36.723-31.688 60.527 0 9.272 1.685 18.34 4.951 26.851-21.416 13.535-34.951 37.236-34.951 63.149 0 9.272 1.685 18.34 4.951 26.851-25.063 15.82-38.921 45.41-33.896 75.806 5.874 35.536 39.008 63.343 77.08 63.343h54.994c37.324 0 69.434-26.195 76.362-60.912 4.307-21.592-.791-43.14-13.755-60.103 9.829-12.934 15.264-28.696 15.264-44.985z" fill="#cc7029"/><path d="m477.049 372.851c3.266-8.511 4.951-17.579 4.951-26.851 0-25.913-13.535-49.614-34.951-63.149 3.266-8.511 4.951-17.579 4.951-26.851 0-23.804-12.47-46.421-31.703-60.527-10.943-8.013-29.297-25.371-29.297-51.592v-7.881l-29.385-4.233-60 204.595c-.395 3.134-.615 6.371-.615 9.638 0 16.289 5.435 32.051 15.264 44.985-12.964 16.963-18.062 38.511-13.755 60.103 6.929 34.717 39.038 60.912 76.362 60.912h55.009c38.057 0 71.191-27.807 77.065-63.344 5.025-30.395-8.833-59.985-33.896-75.805z" fill="#994a0f"/><path d="m256 0c-74.559 0-135 61.441-135 136s60.441 135 135 135 135-60.441 135-135-60.441-136-135-136z" fill="#e68945"/><path d="m391 136c0-74.559-60.441-136-135-136v271c74.559 0 135-60.441 135-135z" fill="#cc7029"/><circle cx="181" cy="136" fill="#463f3f" r="15"/><circle cx="331" cy="136" fill="#463f3f" r="15"/><path d="m256 196h-75v90c0 41.42 33.578 75 75 75s75-33.58 75-75v-90z" fill="#e6455a"/><path d="m331 286v-90h-75v165c41.422 0 75-33.58 75-75z" fill="#b32437"/><g><path d="m214.757 158.099c-54.248 17.51-93.757 67.824-93.757 127.901v28.109c0 23.992 18.168 46.481 43.854 46.882 25.415.395 46.146-23.273 46.146-48.692v-7.786c0-26.744 9.21-48.935 25.605-65.33l8.789-8.789c2.93-2.93 6.768-4.395 10.605-4.395l-12.858-39.189z" fill="#ffd396"/><path d="m297.243 158.099-27.959 28.167-13.284 39.734c3.838 0 7.676 1.465 10.605 4.395l8.789 8.789c16.396 16.395 25.606 38.629 25.606 61.816v11.25c0 25.419 20.729 49.136 46.146 48.741 25.723-.401 43.854-22.932 43.854-46.882v-28.109c0-60.077-39.509-110.391-93.757-127.901z" fill="#ffb64c"/><path d="m256 151c-14.482 0-28.165 2.878-41.243 7.099l28.513 60.826c2.725 4.394 7.544 7.075 12.73 7.075s10.005-2.681 12.729-7.075l28.513-60.826c-13.077-4.221-26.76-7.099-41.242-7.099z" fill="#5b5555"/><path d="m297.243 158.099c-13.078-4.221-26.761-7.099-41.243-7.099v75c5.186 0 10.005-2.681 12.729-7.075z" fill="#463f3f"/></g></g></svg>