<?xml version="1.0" encoding="iso-8859-1"?>
<!-- Generator: Adobe Illustrator 19.0.0, SVG Export Plug-In . SVG Version: 6.00 Build 0)  -->
<svg version="1.1" id="Capa_1" xmlns="http://www.w3.org/2000/svg" xmlns:xlink="http://www.w3.org/1999/xlink" x="0px" y="0px"
	 viewBox="0 0 512 512" style="enable-background:new 0 0 512 512;" xml:space="preserve">
<polygon style="fill:#FFBA4D;" points="60.305,207.888 60.305,472.887 451.696,472.887 451.696,207.888 451.696,164.53 256,46.92 
	60.305,171.449 "/>
<path style="fill:#FAA330;" d="M60.305,171.449v36.439v31.639c5.706-1.044,11.179-3.185,16.13-6.341L256,118.686l179.566,114.499
	c4.95,3.156,10.424,5.296,16.13,6.341v-31.639v-43.356L256,46.919L60.305,171.449z"/>
<path style="fill:#FC7C81;" d="M488.892,149.554L274.598,12.911c-11.344-7.233-25.852-7.232-37.195,0L23.109,149.554
	c-7.049,4.495-9.12,13.855-4.625,20.904l20.917,32.804c4.495,7.049,13.855,9.12,20.904,4.625L256,83.103l195.696,124.785
	c7.049,4.495,16.409,2.424,20.904-4.625l20.917-32.804C498.012,163.408,495.941,154.049,488.892,149.554z"/>
<path style="fill:#F0F0F0;" d="M298.083,140.81h-84.166c-3.504,0-6.344,2.84-6.344,6.344v24.867c0,3.504,2.84,6.344,6.344,6.344
	h84.166c3.504,0,6.344-2.84,6.344-6.344v-24.867C304.428,143.65,301.588,140.81,298.083,140.81z"/>
<g>
	<path style="fill:#D9D9D9;" d="M298.083,140.81h-7.385l13.73,8.754v-2.41C304.428,143.65,301.588,140.81,298.083,140.81z"/>
	<path style="fill:#D9D9D9;" d="M221.301,140.81h-7.384c-3.504,0-6.344,2.84-6.344,6.344v2.41L221.301,140.81z"/>
</g>
<path style="fill:#3B484A;" d="M256,204.064L256,204.064c-70.313,0-117.429,56.999-117.429,127.312v141.511h234.858V331.375
	C373.429,261.063,326.313,204.064,256,204.064z"/>
<g>
	<path style="fill:#886A5E;" d="M173.867,314.004c-33.501-23.627-38.113,6.022-61.832,21.835s5.97,45.889,40.212,21.956
		L173.867,314.004z"/>
	<path style="fill:#886A5E;" d="M338.133,314.004c33.501-23.627,38.113,6.022,61.832,21.835s-5.97,45.889-40.212,21.956
		L338.133,314.004z"/>
</g>
<path style="fill:#F0F0F0;" d="M399.554,421.907c-5.768-14.671-19.45-23.521-27.799-36.456
	c-7.854-12.168-11.532-26.304-15.801-39.982c-11.254-36.054-42.368-57.728-80.187-57.728h-39.532
	c-37.819,0-68.934,21.674-80.187,57.728c-4.269,13.678-7.947,27.814-15.801,39.982c-8.348,12.935-22.031,21.785-27.799,36.456
	c-2.422,6.161-3.524,12.744-3.524,19.354l147.079,31.627l147.078-31.627C403.079,434.651,401.977,428.068,399.554,421.907z"/>
<path style="fill:#D9D9D9;" d="M132.923,441.26c0-6.609,1.102-13.192,3.524-19.354c5.768-14.671,19.45-23.521,27.799-36.456
	c7.854-12.168,11.532-26.304,15.801-39.981c11.254-36.055,42.368-57.729,80.187-57.729h-24.001
	c-37.819,0-68.934,21.674-80.187,57.729c-4.269,13.678-7.947,27.814-15.801,39.981c-8.348,12.935-22.031,21.785-27.799,36.456
	c-2.422,6.161-3.524,12.744-3.524,19.354L256,472.887l12.001-2.581L132.923,441.26z"/>
<path style="fill:#886A5E;" d="M265.417,402.716h-18.832c-21.287,0-38.544,17.257-38.544,38.544l0,0h95.921l0,0
	C303.961,419.973,286.704,402.716,265.417,402.716z"/>
<rect x="32.111" y="441.263" style="fill:#7EDEE6;" width="447.774" height="63.253"/>
<path d="M298.083,133.297h-84.166c-7.633,0-13.845,6.211-13.845,13.845v24.867c0,7.633,6.21,13.845,13.845,13.845h84.166
	c7.634,0,13.845-6.211,13.845-13.845v-24.867C311.928,139.508,305.717,133.297,298.083,133.297z M296.927,170.853h-81.854v-22.555
	h81.854V170.853z"/>
<path d="M206.025,388.303c-3.119-2.726-7.856-2.408-10.584,0.71c-1.063,1.215-2.692,1.913-4.471,1.913
	c-1.778,0-3.408-0.697-4.47-1.913c-2.726-3.119-7.464-3.437-10.584-0.71c-3.119,2.727-3.437,7.464-0.71,10.584
	c3.911,4.474,9.658,7.04,15.764,7.04c6.107,0,11.854-2.566,15.765-7.04C209.462,395.768,209.144,391.029,206.025,388.303z"/>
<path d="M336.081,388.303c-3.118-2.726-7.856-2.408-10.584,0.71c-1.063,1.215-2.692,1.913-4.47,1.913
	c-1.779,0-3.408-0.697-4.471-1.913c-2.726-3.119-7.465-3.437-10.584-0.71c-3.119,2.727-3.437,7.464-0.71,10.584
	c3.911,4.474,9.658,7.04,15.765,7.04c6.106,0,11.853-2.566,15.764-7.04C339.519,395.768,339.201,391.029,336.081,388.303z"/>
<path d="M464.726,217.214c5.904-1.307,10.947-4.834,14.198-9.934l20.917-32.804c6.711-10.525,3.609-24.548-6.917-31.261
	L278.629,6.574c-13.747-8.765-31.513-8.765-45.259,0L79.149,104.911c-3.493,2.227-4.519,6.864-2.292,10.357
	c2.227,3.493,6.864,4.518,10.357,2.292l154.22-98.338c8.848-5.642,20.283-5.642,29.13,0c0,0,214.118,136.531,214.294,136.643
	c3.518,2.243,4.581,7.021,2.334,10.548c0,0-20.891,32.764-20.916,32.804c-2.245,3.52-7.019,4.583-10.548,2.334L260.033,76.766
	c-2.459-1.568-5.605-1.568-8.064,0L56.272,201.55c-3.55,2.265-8.282,1.217-10.548-2.334c0,0-20.894-32.769-20.917-32.804
	c-2.233-3.502-1.156-8.322,2.333-10.548l34.082-21.732c3.493-2.227,4.519-6.864,2.292-10.357c-2.227-3.493-6.865-4.518-10.357-2.292
	l-34.082,21.732c-10.526,6.711-13.629,20.735-6.917,31.261l20.917,32.804c4.428,6.944,12.039,10.656,19.728,10.451v216.015H32.114
	c-4.142,0-7.5,3.358-7.5,7.5v63.252c0,4.142,3.358,7.5,7.5,7.5h371.947c4.142,0,7.5-3.358,7.5-7.5s-3.358-7.5-7.5-7.5H39.615
	v-48.252h432.771v48.252h-38.323c-4.142,0-7.5,3.358-7.5,7.5s3.358,7.5,7.5,7.5h45.823c4.142,0,7.5-3.358,7.5-7.5v-63.252
	c0-4.142-3.358-7.5-7.5-7.5h-20.69V217.735C459.394,217.741,463.085,217.577,464.726,217.214z M237.134,411.678
	c4.293,5.746,11.141,9.474,18.866,9.474c7.725,0,14.573-3.727,18.866-9.474c10.171,3.258,18.078,11.624,20.678,22.068h-79.088
	C219.056,423.301,226.963,414.937,237.134,411.678z M310.84,433.747c-3.593-21.833-22.589-38.545-45.424-38.545h-18.832
	c-22.834,0-41.831,16.712-45.424,38.545h-84.173c0.493-3.185,1.309-6.23,2.44-9.108c2.9-7.377,8.469-13.347,14.365-19.667
	c3.894-4.174,7.781-8.386,11.103-13.041c5.335-7.476,9.069-16.006,12.1-24.636c4.336-12.348,7.072-25.473,13.912-36.787
	c7.569-12.523,18.444-22.162,31.577-28.176c7.319-3.352,15.177-5.48,23.162-6.457c3.512-0.43,7.051-0.645,10.59-0.645h39.532
	c11.583,0,23.198,2.276,33.752,7.103c13.129,6.012,24,15.648,31.571,28.165c4.223,6.983,6.974,14.754,9.37,22.609
	c5.994,19.653,13.58,36.677,27.75,51.866c5.896,6.319,11.465,12.289,14.365,19.666c1.132,2.879,1.947,5.924,2.44,9.108
	L310.84,433.747L310.84,433.747z M150.027,297.78c12.634-52.095,53.864-86.231,105.973-86.231s93.339,34.136,105.973,86.231
	c-7.48-0.646-14.748,2.031-21.174,5.639c-0.524,0.294-1.053,0.6-1.585,0.917c-13.222-12.501-30.285-20.591-49.674-23.188
	c-4.566-0.612-9.166-0.922-13.774-0.922h-39.532c-4.433,0-13.608,0.9-13.772,0.922c-19.39,2.597-36.454,10.688-49.676,23.188
	c-4.21-2.512-8.71-4.652-13.499-5.788C156.264,297.831,153.129,297.515,150.027,297.78z M375.778,357.623
	c-0.01-0.003-0.02-0.009-0.03-0.012c-3.306-1.116-6.427-2.616-9.391-4.458c-0.08-0.05-0.16-0.1-0.24-0.15
	c-0.441-1.426-0.877-2.853-1.312-4.277c-2.099-6.874-4.431-13.883-7.735-20.37c-2.187-4.295-4.802-8.577-7.705-12.52
	c0.07-0.037,0.14-0.074,0.21-0.11c4.256-2.207,9.384-4.089,14.124-2.283c5.567,2.124,9.837,7.569,13.738,11.826
	c5.028,5.486,10.729,11.707,18.37,16.801c2.901,1.934,6.116,5.047,4.951,8.894c-1.24,4.095-6.971,8.239-15.527,8.239
	C382.167,359.201,378.992,358.666,375.778,357.623z M134.564,325.266c3.934-4.292,7.036-7.578,9.982-9.719
	c2.696-1.955,5.934-3.151,9.298-2.764c2.949,0.339,5.749,1.491,8.371,2.835c0.135,0.069,0.277,0.152,0.414,0.224
	c-2.197,2.984-4.223,6.13-6.063,9.436c-4.146,7.349-6.914,15.396-9.368,23.439c-0.436,1.427-0.871,2.856-1.313,4.283
	c-0.08,0.05-0.159,0.101-0.239,0.15c-5.631,3.513-12.159,6.051-18.871,6.05c-8.557-0.001-14.289-4.147-15.528-8.242
	c-1.164-3.845,2.049-6.958,4.95-8.892C123.836,336.973,129.536,330.753,134.564,325.266z M410.133,433.747
	c-0.594-5.1-1.788-9.991-3.599-14.598c-3.945-10.035-10.764-17.343-17.357-24.41c-2.946-3.158-5.769-6.195-8.248-9.366v-11.401
	c1.439,0.147,2.874,0.23,4.299,0.23h0.001c14.452,0,26.462-7.593,29.884-18.893c2.902-9.586-1.205-19.202-10.988-25.723
	c-6.129-4.086-10.96-9.357-15.631-14.455c-3.1-3.383-6.248-6.803-9.704-9.716c-4.999-30.14-18.907-57.242-39.409-76.567
	c-22.418-21.131-51.252-32.3-83.38-32.3s-60.962,11.169-83.38,32.3c-20.501,19.324-34.408,46.424-39.407,76.563
	c-3.457,2.913-6.605,6.333-9.707,9.719c-4.671,5.097-9.5,10.368-15.631,14.455c-9.781,6.521-13.888,16.136-10.987,25.719
	c3.421,11.301,15.43,18.895,29.883,18.897h0.005c1.424,0,2.857-0.083,4.295-0.229v11.4c-2.478,3.171-5.301,6.208-8.248,9.366
	c-6.593,7.067-13.412,14.376-17.356,24.41c-1.812,4.607-3.006,9.499-3.6,14.599H67.805v-221.76L256,91.986l188.195,120.002v221.76
	h-34.062V433.747z"/>
<g>
</g>
<g>
</g>
<g>
</g>
<g>
</g>
<g>
</g>
<g>
</g>
<g>
</g>
<g>
</g>
<g>
</g>
<g>
</g>
<g>
</g>
<g>
</g>
<g>
</g>
<g>
</g>
<g>
</g>
</svg>
