<svg id="Capa_1" enable-background="new 0 0 511.975 511.975" height="512" viewBox="0 0 511.975 511.975" width="512" xmlns="http://www.w3.org/2000/svg"><g><path d="m255.899 29.975c-74.443 0-135 60.557-135 135v121h135 135v-121c0-74.444-60.557-135-135-135z" fill="#e68945"/><path d="m390.899 164.975c0-74.443-60.557-135-135-135v256h135z" fill="#cc7029"/><path d="m255.899 224.975c-101.777 0-165 55.639-165 143.603 0 40.693 26.279 81.914 78.091 122.534 4.863 3.794 11.572 4.263 16.846 1.128 5.317-3.12 8.188-9.17 7.236-15.249l-1.143-7.324c17.344 13.198 36.899 29.931 56.938 40.565 2.197 1.157 4.614 1.743 7.031 1.743s4.834-.586 7.031-1.743c20.039-10.635 39.595-27.367 56.938-40.565l-1.143 7.324c-.953 6.079 1.919 12.129 7.236 15.249 5.347 3.135 11.982 2.666 16.846-1.128 51.812-40.62 78.091-81.841 78.091-122.534.002-87.965-63.221-143.603-164.998-143.603z" fill="#cc7029"/><path d="m319.868 469.666-1.143 7.324c-.953 6.079 1.919 12.129 7.236 15.249 5.347 3.135 11.982 2.666 16.846-1.128 51.812-40.62 78.091-81.841 78.091-122.534 0-87.964-63.223-143.603-165-143.603v287c2.417 0 4.834-.586 7.031-1.743 20.04-10.634 39.596-27.367 56.939-40.565z" fill="#994a0f"/><g><circle cx="195.899" cy="194.975" fill="#463f3f" r="15"/></g><g><circle cx="315.899" cy="194.975" fill="#352c2c" r="15"/></g><g><path d="m327.573 370.57c-2.109-8.013-10.298-12.715-18.325-10.708-17.739 4.688-32.227-6.27-36.68-18.955-2.45-7.009-9.587-10.723-16.631-9.532-.013-.002-.026.002-.038 0-7.068-1.249-14.214 2.496-16.67 9.532-4.438 12.686-18.867 23.73-36.68 18.955-7.969-2.007-16.23 2.695-18.325 10.708s2.695 16.216 10.708 18.325c23.309 6.083 46.41-1.679 60.967-18.214l.002-.002c14.551 16.525 37.639 24.304 60.965 18.215 8.012-2.109 12.802-10.312 10.707-18.324z" fill="#463f3f"/><path d="m316.865 388.895c8.013-2.109 12.803-10.313 10.708-18.325-2.109-8.013-10.298-12.715-18.325-10.708-17.739 4.688-32.227-6.27-36.68-18.955-2.45-7.009-9.587-10.723-16.631-9.532-.013-.002-.026.002-.038 0v39.307l.002-.002c14.551 16.525 37.639 24.303 60.964 18.215z" fill="#352c2c"/><g><path d="m263.399 285.995h-7.5-7.5c-23.851-.353-37.5 5.741-37.5 29.98 0 24.814 20.186 45 45 45s45-20.186 45-45c0-24.397-13.653-30.127-37.5-29.98z" fill="#463f3f"/><path d="m300.899 315.975c0-24.397-13.652-30.126-37.5-29.98h-7.5v74.98c24.814 0 45-20.186 45-45z" fill="#352c2c"/></g></g><g><path d="m115.288 186.904-50.522-86.382c-5.259-13.74-4.731-25.957.352-36.855 5.083-10.884 14.106-19.146 25.4-23.262l105.923-38.555c11.66-4.233 24.536-1.055 32.856 8.042 8.35 9.111 10.371 22.236 5.142 33.428-14.678 56.924-40.356 128.013-101.074 150.103-6.774 2.473-14.401-.244-18.077-6.519z" fill="#cc7029"/></g><g><path d="m378.433 193.422c-60.718-22.09-86.396-93.179-101.997-152.637-4.307-8.657-2.285-21.782 6.064-30.894 8.335-9.097 21.226-12.275 32.856-8.042l105.924 38.555c11.294 4.116 20.317 12.378 25.4 23.262 5.083 10.898 5.61 23.115 1.494 34.409l-51.665 88.828c-3.669 6.266-11.291 8.997-18.076 6.519z" fill="#994a0f"/></g></g></svg>