<svg height="512" viewBox="0 0 60 60" width="512" xmlns="http://www.w3.org/2000/svg"><g id="Page-1" fill="none" fill-rule="evenodd"><g id="007---Pet-Insurance" fill-rule="nonzero" transform="translate(-1)"><path id="Shape" d="m38.58 46.74c.1718814 2.6015533 1.1863739 5.0763534 2.89 7.05-.8152382.1449357-1.6419949.2152268-2.47.21-.4660201.0023941-.9312853-.0377727-1.39-.12-4.92-.82-6.61-5.88-6.61-5.88s-1.69 5.06-6.61 5.88c-.4587147.0822273-.9239799.1223941-1.39.12-6 0-9-3-9-9-.0003404-1.726203.4329154-3.4248407 1.26-4.94 1.87-3.46 5.7-6.15 10.74-7.44v.05c0 2.21 2.24 5.33 5 5.33s5-3.12 5-5.33v-.05c2.9672707.6904882 5.722737 2.0905259 8.03 4.08-1.8273933 1.0459785-3.9339597 1.5001305-6.03 1.3z" fill="#e8edfc"/><path id="Shape" d="m36 32.62v.05c0 2.21-2.24 5.33-5 5.33s-5-3.12-5-5.33v-.05c.04-2.17 2.26-2.62 5-2.62s4.96.45 5 2.62z" fill="#a4c2f7"/><path id="Shape" d="m58.72 9.46c-.2792048-3.08970132-2.8677104-5.45707825-5.97-5.46h-8.75c-.6360099-.00280058-1.2712695.04400803-1.9.14-6.8078038-4.18676566-15.3921962-4.18676566-22.2 0h-.01c-.6247882-.10104596-1.2571427-.14788703-1.89-.14h-8.75c-3.10228965.00292175-5.69079518 2.37029868-5.97 5.46l-1.27 13.95c-.05747016.6433734.19932356 1.2748938.68947379 1.6955895s1.15330516.5787669 1.78052621.4244105c1.55644997-.3671851 3.07106566-.8932795 4.52-1.57v.04c-.02873225 5.9540894 2.2093931 11.6959892 6.26 16.06 1.87-3.46 5.7-6.15 10.74-7.44.04-2.17 2.26-2.62 5-2.62s4.96.45 5 2.62c2.9672707.6904882 5.722737 2.0905259 8.03 4.08 1.8425184-.9617742 3.5201794-2.2107371 4.97-3.7.54.54 1.08 1.03 1.6 1.46 1.1359899-2.3391987 1.8792556-4.8494097 2.2-7.43.1376007-1.0040641.2044322-2.0165608.2-3.03v-.04c1.4489343.6767205 2.96355 1.2028149 4.52 1.57.627221.1543564 1.290376-.0037148 1.7805262-.4244105s.746944-1.0522161.6894738-1.6955895zm-37.72 20.54c-2.21 0-4-2.24-4-5-.0046968-.8103709.1552001-1.6132577.47-2.36v-.01c1.7864585-1.0835005 3.8407905-1.6447177 5.93-1.62 1.0564009 1.0553206 1.6345933 2.497188 1.6 3.99 0 2.76-1.79 5-4 5zm20 0c-2.21 0-4-2.24-4-5-.0345933-1.492812.5435991-2.9346794 1.6-3.99 2.0892095-.0247177 4.1435415.5364995 5.93 1.62v.01c.3147999.7467423.4746968 1.5496291.47 2.36 0 2.76-1.79 5-4 5z" fill="#e8edfc"/><path id="Shape" d="m58.72 9.46c-.2792048-3.08970132-2.8677104-5.45707825-5.97-5.46h-3c3.1022896.00292175 5.6907952 2.37029868 5.97 5.46l1.27 13.95c.0660435.6846809-.2324079 1.3537286-.786 1.762.463.138.91.262 1.316.358.627221.1543564 1.290376-.0037148 1.7805262-.4244105s.746944-1.0522161.6894738-1.6955895z" fill="#cad9fc"/><path id="Shape" d="m49.932 22c.1282168 1.6767667.083985 3.362266-.132 5.03-.3114478 2.4824188-1.0145087 4.8997602-2.083 7.162.421-.363.849-.758 1.283-1.192.54.54 1.08 1.03 1.6 1.46 1.1359899-2.3391987 1.8792556-4.8494097 2.2-7.43.1239255-1.0054039.1906995-2.01703.2-3.03z" fill="#cad9fc"/><path id="Shape" d="m25 25c0 2.76-1.79 5-4 5s-4-2.24-4-5c-.0046968-.8103709.1552001-1.6132577.47-2.36v-.01c1.7864585-1.0835005 3.8407905-1.6447177 5.93-1.62 1.0564009 1.0553206 1.6345933 2.497188 1.6 3.99z" fill="#a4c2f7"/><path id="Shape" d="m45 25c0 2.76-1.79 5-4 5s-4-2.24-4-5c-.0345933-1.492812.5435991-2.9346794 1.6-3.99 2.0892095-.0247177 4.1435415.5364995 5.93 1.62v.01c.3147999.7467423.4746968 1.5496291.47 2.36z" fill="#a4c2f7"/><path id="Shape" d="m37.61 53.88c-.67 1.18-2.43 3.12-6.61 3.12s-5.94-1.94-6.61-3.12c4.92-.82 6.61-5.88 6.61-5.88s1.69 5.06 6.61 5.88z" fill="#a4c2f7"/><path id="Shape" d="m60 38-.58 8.74c-.2621801 3.922401-2.4289327 7.4676566-5.8 9.49l-4.62 2.77-4.62-2.77c-1.091196-.6567603-2.0730436-1.4800277-2.91-2.44-1.7036261-1.9736466-2.7181186-4.4484467-2.89-7.05l-.58-8.74c2.0960403.2001305 4.2026067-.2540215 6.03-1.3 1.8425184-.9617742 3.5201794-2.2107371 4.97-3.7.54.54 1.08 1.03 1.6 1.46 5.26 4.37 9.4 3.54 9.4 3.54z" fill="#e8edfc"/><path id="Shape" d="m50.6 34.46c-.52-.43-1.06-.92-1.6-1.46-.508.508-1.008.961-1.5 1.373.033.028.067.06.1.087 5.26 4.37 9.4 3.54 9.4 3.54l-.58 8.74c-.2621801 3.922401-2.4289327 7.4676566-5.8 9.49l-3.12 1.87 1.5.9 4.62-2.77c3.3710673-2.0223434 5.5378199-5.567599 5.8-9.49l.58-8.74s-4.14.83-9.4-3.54z" fill="#cad9fc"/><path id="Shape" d="m27.39 53.88c-.4587147.0822273-.9239799.1223941-1.39.12-.5308104-.0016524-1.0611821-.030691-1.589-.087.689 1.187 2.446 3.087 6.589 3.087.5014895.0005729 1.0025054-.0308241 1.5-.094-2.0942062-.1172133-4.0004333-1.246028-5.11-3.026z" fill="#fff"/><path id="Shape" d="m4.48 25.53c.406-.1.853-.22 1.316-.358-.55359208-.4082714-.85204352-1.0773191-.786-1.762l1.27-13.95c.27920482-3.08970132 2.86771035-5.45707825 5.97-5.46 2.142 0 3.789 0 5.091-.006-1.409-.007-3.76.006-8.091.006-3.10228965.00292175-5.69079518 2.37029868-5.97 5.46l-1.27 13.95c-.05747016.6433734.19932356 1.2748938.68947379 1.6955895s1.15330516.5787669 1.78052621.4244105z" fill="#fff"/><path id="Shape" d="m12 23.96c-.9549499.4453635-1.9396473.8239391-2.947 1.133.21787016 5.5695806 2.4192866 10.8778776 6.207 14.967-.8270846 1.5151593-1.2603404 3.213797-1.26 4.94 0 6 3 9 9 9 .4216861.0009165.8427459-.0325275 1.259-.1-4.834-.5533333-7.2536667-3.52-7.259-8.9-.0003404-1.726203.4329154-3.4248407 1.26-4.94-4.0599162-4.3742129-6.298719-10.1321562-6.26-16.1z" fill="#fff"/><path id="Rectangle-path" d="m-1.086 12.44h8v2h-8z" fill="#fff" transform="matrix(.091 -.996 .996 .091 -10.734 15.125)"/><g fill="#428dff"><path id="Shape" d="m2.935 14.44c-.55228474.0027614-1.00223854-.4427153-1.00499996-.995-.00276143-.5522847.44271522-1.0022386.99499996-1.005h.01c.55228475 0 1 .4477153 1 1s-.44771525 1-1 1z"/><path id="Shape" d="m2.031 25.85c.55060726.4751236 1.25373755.7363573 1.981.736.23579255.0000778.47076383-.0277831.7-.083 1.14137665-.2728546 2.26241071-.6247023 3.355-1.053.28478388 5.4629425 2.4068533 10.669448 6.022 14.775-.7117054 1.4915296-1.0836415 3.1223789-1.089 4.775 0 6.542 3.458 10 10 10 .307 0 .6-.019.895-.047.971 1.337 3.013 3.047 7.105 3.047s6.134-1.71 7.1-3.047c.291.028.588.047.9.047.7064341-.0020119 1.4118482-.0538069 2.111-.155.811535.8698684 1.738898 1.6239396 2.756 2.241l4.618 2.771c.3169325.1904131.7130675.1904131 1.03 0l4.618-2.771c3.6532995-2.1919724 6.0006909-6.0349246 6.283-10.286l.584-8.734c.0183752-.3084706-.1061813-.6082452-.337746-.8128657-.2315648-.2046204-.5443901-.291335-.848254-.2351343-.158.028-3.516.579-7.989-2.862.9966447-2.2187612 1.6588433-4.5730205 1.965-6.986.079-.552.13-1.123.164-1.712 1.0856746.4236843 2.1993267.7718468 3.333 1.042.2292461.0551615.4642108.0830216.7.083.7272945.000536 1.4304852-.26072 1.981-.736.7315281-.6282107 1.1113454-1.5732768 1.018-2.533l-1.266-13.948c-.3123584-3.61344602-3.3451164-6.38259949-6.972-6.366h-8.748c-.565123-.00002901-1.1296489.03671529-1.69.11-6.9698618-4.14672979-15.6501382-4.14672979-22.62 0-.5603511-.07328471-1.124877-.11002901-1.69-.11h-8.748c-3.62688356-.01659949-6.65964164 2.75255398-6.972 6.366-.02416545.26432249.05774419.52740868.22768348.7312983.16993929.2038896.41396516.3318541.67831652.3557017h.091c.51704827-.000487.94846586-.3950498.995-.91.22573498-2.57909952 2.39106582-4.5544204 4.98-4.543h8.748c2.413 0 3.176.6 3.249.661.356752.40483094.9703442.45362271 1.3865913.1102593.4162472-.3433634.4850184-.95503854.1554087-1.3822593-.1333947-.1599689-.2889676-.30005186-.462-.416 5.4813661-2.63070836 11.8606339-2.63070836 17.342 0-.1730324.11594814-.3286053.2560311-.462.416-.3445959.44004231-.2753705 1.07460857.156 1.43.2020462.16580901.4624564.24306332.7222366.2142616s.4969439-.16122182.6577634-.3672616c.007-.007.721-.666 3.255-.666h8.748c2.5903428-.01124531 4.7562233 1.96631672 4.98 4.547l1.272 13.953c.0309164.3181374-.0947788.6314428-.337.84-.2490246.2163523-.5877289.2980442-.908.219-3.837-.913-10.57-3.533-12.558-10.821-.0870932-.3523584-.3582748-.6298609-.7085333-.7250484-.3502585-.0951874-.7245951.0068867-.9780531.2666957-.2534581.259809-.3462386.6365567-.2424136.9843527 1.2650584 4.5432692 4.4490734 8.3086527 8.719 10.311-.012919.7800412-.0710163 1.5586789-.174 2.332-.2564913 2.0240629-.7849254 4.0042613-1.571 5.887-.176-.166-.351-.321-.53-.5-.3904999-.3903819-1.0235001-.3903819-1.414 0-1.2276259 1.2525592-2.6208842 2.3312326-4.141 3.206-2.1409888-1.7045045-4.6093565-2.9509417-7.252-3.662-.618-2.829-4.4-2.838-5.905-2.838s-5.29.009-5.906 2.841c-3.963347.9877082-7.4707624 3.2988205-9.942 6.551-3.2216633-3.8956096-5.0285378-8.7677553-5.126-13.822 4.266567-2.0025531 7.447553-5.7663486 8.711-10.307.103825-.347796.0110445-.7245437-.2424136-.9843527-.253458-.259809-.6277946-.3618831-.9780531-.2666957-.3502585.0951875-.6214401.37269-.7085333.7250484-1.988 7.288-8.721 9.908-12.558 10.821-.32027194.0786975-.65881663-.0029559-.908-.219-.24222125-.2085572-.3679164-.5218626-.337-.84l.543-5.982c.03384327-.5402831-.36838931-1.0093998-.90750813-1.0584106s-1.01935224.3398817-1.08349187.8774106l-.544 5.981c-.09334541.9597232.28647192 1.9047893 1.018 2.533zm28.969 30.15c-1.7654927.1240447-3.5112407-.4343655-4.877-1.56 2.0365896-.8103795 3.7502461-2.2678835 4.877-4.148 1.1267539 1.8801165 2.8404104 3.3376205 4.877 4.148-1.3657593 1.1256345-3.1115073 1.6840447-4.877 1.56zm18-21.612c4.28 3.964 8.045 4.631 9.927 4.672l-.507 7.611c-.2399205 3.595707-2.2258786 6.8458641-5.316 8.7l-4.104 2.463-4.1-2.462c-3.0901214-1.8541359-5.0760795-5.104293-5.316-8.7l-.507-7.611c1.879-.042 5.643-.709 9.923-4.673zm-18-3.388c4 0 4 1.084 4 1.667 0 1.671-1.831 4.333-4 4.333s-4-2.662-4-4.333c0-.583 0-1.667 4-1.667zm-5.836 2.9c.636 2.531 3.06 5.1 5.836 5.1s5.207-2.572 5.837-5.1c1.8842448.5633719 3.6656474 1.4260488 5.276 2.555-1.2393583.5076422-2.5843624.7033666-3.917.57-.3044286-.0614452-.6201267.0220401-.8543858.2259396-.2342591.2038994-.3604866.5050666-.3416142.8150604l.582 8.738c.1512423 2.1979961.8594771 4.3213238 2.058 6.17-.214.009-.42.026-.642.026-4.789 0-6.68-4.341-7-5.177v-2.823c0-.5522847-.4477153-1-1-1s-1 .4477153-1 1v2.821c-.318.838-2.209 5.179-6.998 5.179-5.458 0-8-2.542-8-8 0-4.981 3.866-9.161 10.164-11.1z"/><circle id="Oval" cx="18" cy="46" r="1"/><circle id="Oval" cx="20" cy="42" r="1"/><circle id="Oval" cx="21" cy="50" r="1"/><circle id="Oval" cx="23" cy="46" r="1"/><path id="Shape" d="m41 31c2.757 0 5-2.691 5-6-.0004541-.5040769-.0530676-1.0067538-.157-1.5.2384935-.3865772.1823588-.8860111-.136-1.21-.094-.09-2.354-2.29-7.707-2.29-.5522847 0-1 .4477153-1 1 .0039314.1060802.0252132.2108001.063.31-.6998798 1.1030531-1.0687917 2.38366-1.063 3.69 0 3.309 2.243 6 5 6zm0-2c-1.654 0-3-1.794-3-4-.0149159-1.0789021.3512345-2.1284861 1.034-2.964 1.6291076.0488869 3.2242239.4779725 4.658 1.253.1999692.5484661.3041534 1.1272296.308 1.711 0 2.206-1.346 4-3 4z"/><path id="Shape" d="m24 20c-5.353 0-7.613 2.2-7.707 2.293-.3157341.3213876-.3710644.8168833-.134 1.2-.1050216.4954753-.1583073 1.0005172-.159 1.507 0 3.309 2.243 6 5 6s5-2.691 5-6c.0057917-1.30634-.3631202-2.5869469-1.063-3.69.0377868-.0991999.0590686-.2039198.063-.31 0-.5522847-.4477153-1-1-1zm-3 9c-1.654 0-3-1.794-3-4 .0039171-.5833505.1077526-1.1617176.307-1.71 1.4336586-.776358 3.0293406-1.2058461 4.659-1.254.6827655.8355139 1.0489159 1.8850979 1.034 2.964 0 2.206-1.346 4-3 4z"/><path id="Shape" d="m46.293 51.707c.1874927.1875494.4418052.2929434.707.293.0289807.0014957.0580193.0014957.087 0 .2945354-.0258521.5625321-.180719.732-.423l7-10c.2178449-.2921912.259472-.679762.1086459-1.0115504s-.4702176-.5552454-.833604-.5832174c-.3633863-.027972-.7132141.1439713-.9130419.4487678l-6.317 9.019-2.157-2.157c-.3923789-.3789722-1.0160848-.3735524-1.4018186.0121814s-.3911536 1.0094397-.0121814 1.4018186z"/></g></g></g></svg>